<svg width="16" height="16" viewBox="0 0 16 16" fill="none" xmlns="http://www.w3.org/2000/svg">
<path d="M15.7235 4.44019C15.5276 3.58928 14.8316 2.9615 13.9938 2.86786C12.0097 2.64638 10.0015 2.64522 8.00256 2.64638C6.00328 2.64522 3.99476 2.64638 2.01067 2.86786C1.17331 2.9615 0.477812 3.58928 0.28193 4.44019C0.00313807 5.65198 0 6.97476 0 8.22239C0 9.47002 0 10.7926 0.278792 12.0042C0.474343 12.855 1.17 13.4828 2.00787 13.5766C3.99178 13.7982 6.00014 13.7994 7.99942 13.7982C9.99903 13.7994 12.0069 13.7982 13.9906 13.5766C14.828 13.4829 15.5242 12.8552 15.7201 12.0042C15.999 10.7925 16 9.46985 16 8.22239C16 6.97476 16.0023 5.65198 15.7235 4.44019ZM5.93524 10.7058C5.93524 8.93588 5.93524 7.18451 5.93524 5.41448C7.63095 6.29925 9.31543 7.17807 11.0219 8.06829C9.32071 8.95058 7.63541 9.82412 5.93524 10.7058Z" fill="currentColor"/>
</svg>
